<?xml version="1.0" encoding="UTF-8"?>
<svg width="128px" height="100px" viewBox="0 0 128 100" version="1.1" xmlns="http://www.w3.org/2000/svg" xmlns:xlink="http://www.w3.org/1999/xlink">
    <!-- Generator: Sketch 46.2 (44496) - http://www.bohemiancoding.com/sketch -->
    <title>Page 1</title>
    <desc>Created with Sketch.</desc>
    <defs>
        <polygon id="path-1" points="1.49090094e-20 0.0103191489 1.49090094e-20 40.6603207 64.5749969 40.6603207 129.149994 40.6603207 129.149994 0.0103191489"></polygon>
        <polygon id="path-3" points="4.45972953e-15 39.6919347 4.45972953e-15 0.351934574 125.150002 0.351934574 125.150002 39.6919347 0 39.6919347"></polygon>
        <polygon id="path-5" points="149.150144 56.5150758 149.150144 0.455074468 0.000150144647 0.455074468 0.000150144647 56.5150758"></polygon>
    </defs>
    <g id="USER" stroke="none" stroke-width="1" fill="none" fill-rule="evenodd">
        <g id="1.-Main" transform="translate(-579.000000, -2118.000000)">
            <g id="5.-Servicios" transform="translate(95.000000, 2017.000000)">
                <g id="Impresión-digital" transform="translate(422.000000, 99.000000)">
                    <g id="Page-1" transform="translate(52.000000, 0.000000)">
                        <g id="Group-3" transform="translate(10.000000, 61.880032)">
                            <mask id="mask-2" fill="white">
                                <use xlink:href="#path-1"></use>
                            </mask>
                            <g id="Clip-2"></g>
                            <path d="M124.469741,5.86901596 L113.943912,0.0103191489 L109.836581,1.46635106 L105.729779,2.92186702 L114.869225,8.00920745 L49.2745995,30.8511596 L13.2809922,10.8170479 L21.6923492,7.88744149 L17.9223608,5.74931383 L14.1523724,3.61067021 L4.21187003,7.07222872 C2.98516973,7.49892553 2.12647953,8.58398404 2.01279825,9.84859574 C1.89858823,11.1137234 2.55000838,12.3282872 3.68047615,12.9572394 L47.3023615,37.2376809 C47.8115479,37.5209415 48.380483,37.6648936 48.9531194,37.6648936 C49.330647,37.6648936 49.7087033,37.6024628 50.0724834,37.4760532 L123.938347,11.7535106 C125.164519,11.3268138 126.023209,10.2422713 126.13689,8.97714362 C126.251629,7.71201596 125.600209,6.49796809 124.469741,5.86901596" id="Fill-1" stroke="#5F5F5F" stroke-width="3" mask="url(#mask-2)"></path>
                        </g>
                        <g id="Group-6" transform="translate(10.000000, 41.757691)">
                            <mask id="mask-4" fill="white">
                                <use xlink:href="#path-3"></use>
                            </mask>
                            <g id="Clip-5"></g>
                            <path d="M121.506683,4.89958351 L113.533077,0.351934574 L109.497773,1.79145585 L107.273997,2.58551436 L105.461954,3.23200904 L112.138444,7.039775 L105.878332,9.27387074 L97.4635819,12.2767431 L93.4282787,13.7167803 L89.3924596,15.1573335 L48.1308266,29.8817271 L35.7540394,22.8218814 L32.0319223,20.6987165 L28.3098053,18.5755516 L19.268167,13.418041 L13.0080553,9.84761543 L19.0571404,7.68884947 L17.8725021,7.01346117 L15.3350234,5.56568457 L11.6134223,3.44251968 L4.15835319,6.10279628 C2.96133191,6.52949309 2.12341702,7.6145516 2.01248617,8.8791633 C1.90103936,10.144291 2.53669894,11.3588548 3.63981596,11.9878069 L3.78634787,12.0708761 L20.238683,21.456142 L23.960284,23.578791 L27.6824011,25.7019559 L46.2063053,36.2682484 C46.7031723,36.551509 47.2583426,36.6954612 47.8171245,36.6954612 C48.1855181,36.6954612 48.5544277,36.6330303 48.9094064,36.5066207 L96.8361777,19.4026314 L100.871997,17.9625941 L104.907816,16.5225569 L120.988146,10.7840782 C121.117135,10.738158 121.239933,10.6814027 121.360151,10.6205197 C122.354917,10.1179771 123.034433,9.13611011 123.133497,8.00771117 C123.24546,6.74258351 122.6098,5.52853564 121.506683,4.89958351" id="Fill-4" stroke="#5F5F5F" stroke-width="3" mask="url(#mask-4)"></path>
                        </g>
                        <g id="Group-9" transform="translate(0.000000, 0.060883)">
                            <mask id="mask-6" fill="white">
                                <use xlink:href="#path-5"></use>
                            </mask>
                            <g id="Clip-8"></g>
                            <path d="M116.379172,32.3581851 L110.330603,34.5169511 L106.294784,35.9575043 L104.071007,36.7510468 L102.25948,37.3975415 L95.9988527,39.6316372 L80.365858,45.2096532 L72.3685176,39.7332809 L66.7966931,35.9172596 L65.7420761,35.1954351 L63.4832144,33.6485947 L61.7733314,32.4768553 L36.1080601,40.5830628 L35.4435069,40.2033181 L28.7670176,36.3955521 L23.0079005,33.110967 L87.0150016,10.2684989 L122.138289,30.3036426 L116.379172,32.3581851 Z M131.506528,28.1629351 L88.9395229,3.88249362 C88.1160548,3.41194043 87.1285122,3.32577553 86.2364218,3.64412128 L14.1581984,29.3661479 C12.9616931,29.7928447 12.1237782,30.8779032 12.0128473,32.1425149 C11.9086239,33.3147702 12.4524431,34.4354298 13.4079963,35.0963713 C13.484358,35.148483 13.5581399,35.2047223 13.6396612,35.2511585 L27.3718686,43.0839085 L31.0939856,45.2070734 L33.6314644,46.65485 L34.8155867,47.3307543 L36.9738367,48.5607968 C37.3814431,48.7934936 37.8334218,48.934866 38.2993314,48.9756266 L44.8540548,49.552467 L63.6999165,51.2112702 L71.4578527,51.8938819 L78.3850973,52.5042596 C78.4805495,52.5130309 78.5749697,52.5166426 78.6704218,52.5166426 C79.0419112,52.5166426 79.4118527,52.4526638 79.7632197,52.3278021 L90.9930335,48.3203606 L95.0283367,46.8803234 L103.443603,43.8769351 L109.703198,41.6433553 L111.514725,40.9968606 L113.739018,40.2033181 L117.774321,38.7632809 L130.987991,34.0474298 C131.259385,33.9509457 131.508592,33.8167968 131.738709,33.6583979 C132.523996,33.1166426 133.047693,32.249834 133.133858,31.2715787 C133.245305,30.0059351 132.609645,28.7918872 131.506528,28.1629351 L131.506528,28.1629351 Z" id="Fill-7" stroke="#5F5F5F" stroke-width="3" mask="url(#mask-6)"></path>
                        </g>
                    </g>
                </g>
            </g>
        </g>
    </g>
</svg>