<?xml version="1.0" encoding="UTF-8"?>
<svg width="101px" height="101px" viewBox="0 0 101 101" version="1.1" xmlns="http://www.w3.org/2000/svg" xmlns:xlink="http://www.w3.org/1999/xlink">
    <!-- Generator: Sketch 46.2 (44496) - http://www.bohemiancoding.com/sketch -->
    <title>Page 1</title>
    <desc>Created with Sketch.</desc>
    <defs></defs>
    <g id="USER" stroke="none" stroke-width="1" fill="none" fill-rule="evenodd">
        <g id="1.-Main" transform="translate(-170.000000, -2385.000000)">
            <g id="5.-Servicios" transform="translate(95.000000, 2017.000000)">
                <g id="medios-diigitales" transform="translate(0.000000, 370.000000)">
                    <g id="Page-1" transform="translate(77.000000, 0.000000)">
                        <path d="M0,17 L84,17" id="Stroke-1" stroke="#5F5F5F" stroke-width="3" stroke-linecap="round" stroke-linejoin="round"></path>
                        <path d="M12,6 C10.896,6 10,6.896 10,8 C10,9.104 10.896,10 12,10 C13.104,10 14,9.104 14,8 C14,6.896 13.104,6 12,6" id="Fill-3" fill="#231F20"></path>
                        <path d="M21,6 C19.896,6 19,6.896 19,8 C19,9.104 19.896,10 21,10 C22.104,10 23,9.104 23,8 C23,6.896 22.104,6 21,6" id="Fill-5" fill="#231F20"></path>
                        <path d="M29,6 C27.896,6 27,6.896 27,8 C27,9.104 27.896,10 29,10 C30.104,10 31,9.104 31,8 C31,6.896 30.104,6 29,6" id="Fill-7" fill="#231F20"></path>
                        <path d="M37.8,68 L8.4,68 C3.7632,68 0,64.2005 0,59.50425 L0,8.50425 C0,3.81225 3.7632,0 8.4,0 L75.6,0 C80.241,0 84,3.81225 84,8.50425 L84,42.5" id="Stroke-9" stroke="#5F5F5F" stroke-width="3" stroke-linecap="round"></path>
                        <polygon id="Stroke-11" stroke="#5F5F5F" stroke-width="3" stroke-linecap="round" stroke-linejoin="round" points="65.6350332 92.8185619 51 97 55.1814381 82.3649668 86.5464049 51 97 61.4535951"></polygon>
                        <path d="M78,59 L88,69" id="Stroke-13" stroke="#5F5F5F" stroke-width="3" stroke-linejoin="round"></path>
                        <path d="M55,82 L65,92" id="Stroke-15" stroke="#5F5F5F" stroke-width="3" stroke-linecap="round" stroke-linejoin="round"></path>
                    </g>
                </g>
            </g>
        </g>
    </g>
</svg>