<?xml version="1.0" encoding="UTF-8"?>
<svg width="122px" height="96px" viewBox="0 0 122 96" version="1.1" xmlns="http://www.w3.org/2000/svg" xmlns:xlink="http://www.w3.org/1999/xlink">
    <!-- Generator: Sketch 46.2 (44496) - http://www.bohemiancoding.com/sketch -->
    <title>Offset</title>
    <desc>Created with Sketch.</desc>
    <defs>
        <polygon id="path-1" points="0 97 123 97 123 0 0 0"></polygon>
    </defs>
    <g id="USER" stroke="none" stroke-width="1" fill="none" fill-rule="evenodd">
        <g id="1.-Main" transform="translate(-301.000000, -2119.000000)">
            <g id="5.-Servicios" transform="translate(95.000000, 2017.000000)">
                <g id="offset" transform="translate(141.000000, 101.000000)">
                    <g id="Offset" transform="translate(64.000000, 0.000000)">
                        <path d="M18.5,69 L10.75,69 C6.4875,69 3,64.4307692 3,58.8461538 L3,13.1538462 C3,7.56923077 7.65,3 13.3333333,3 L85.6666667,3 C91.35,3 96,6.42692308 96,10.6153846 L96,18.2307692 L18.5,69 Z" id="Stroke-1" stroke="#5F5F5F" stroke-width="3" stroke-linecap="round" stroke-linejoin="round"></path>
                        <polyline id="Stroke-3" stroke="#5F5F5F" stroke-width="3" stroke-linecap="round" stroke-linejoin="round" points="17.0714286 57 12 57 12 12 83 12 83 17"></polyline>
                        <path d="M121,84.8461538 C121,90.4307692 116.4,95 110.777778,95 L39.2222222,95 C33.6,95 29,90.4307692 29,84.8461538 L29,39.1538462 C29,33.5692308 33.6,29 39.2222222,29 L110.777778,29 C116.4,29 121,33.5692308 121,39.1538462 L121,84.8461538 Z" id="Stroke-5" stroke="#5F5F5F" stroke-width="3" stroke-linecap="round" stroke-linejoin="round"></path>
                        <mask id="mask-2" fill="white">
                            <use xlink:href="#path-1"></use>
                        </mask>
                        <g id="Clip-8"></g>
                        <polygon id="Stroke-7" stroke="#5F5F5F" stroke-width="3" stroke-linecap="round" stroke-linejoin="round" mask="url(#mask-2)" points="38 83 109 83 109 38 38 38"></polygon>
                    </g>
                </g>
            </g>
        </g>
    </g>
</svg>