<?xml version="1.0" encoding="UTF-8"?>
<svg width="125px" height="99px" viewBox="0 0 125 99" version="1.1" xmlns="http://www.w3.org/2000/svg" xmlns:xlink="http://www.w3.org/1999/xlink">
    <!-- Generator: Sketch 46.2 (44496) - http://www.bohemiancoding.com/sketch -->
    <title>Page 1</title>
    <desc>Created with Sketch.</desc>
    <defs></defs>
    <g id="USER" stroke="none" stroke-width="1" fill="none" fill-rule="evenodd" stroke-linecap="round" stroke-linejoin="round">
        <g id="1.-Main" transform="translate(-718.000000, -2388.000000)" stroke="#5F5F5F" stroke-width="3">
            <g id="5.-Servicios" transform="translate(95.000000, 2017.000000)">
                <g id="Sublimación" transform="translate(562.000000, 373.000000)">
                    <g id="Page-1" transform="translate(63.000000, 0.000000)">
                        <path d="M60.5,95 L92.0652174,95 L92.0652174,31.6666667 L105.217391,44.8611111 L121,29.0277778 L99.7671304,7.73194444 C94.8324348,2.78138889 88.1406087,0 81.1646957,0 L60.5,0 L39.8247826,0 C32.8488696,0 26.1623043,2.78138889 21.2276087,7.73194444 L0,29.0277778 L15.7826087,44.8611111 L28.9347826,31.6666667 L28.9347826,95 L60.5,95 Z" id="Stroke-1"></path>
                        <path d="M75,0 C75,8.83733333 68.056,16 59.5,16 C50.9336667,16 44,8.83733333 44,0" id="Stroke-3"></path>
                    </g>
                </g>
            </g>
        </g>
    </g>
</svg>