<?xml version="1.0" encoding="UTF-8"?>
<svg width="97px" height="101px" viewBox="0 0 97 101" version="1.1" xmlns="http://www.w3.org/2000/svg" xmlns:xlink="http://www.w3.org/1999/xlink">
    <!-- Generator: Sketch 46.2 (44496) - http://www.bohemiancoding.com/sketch -->
    <title>Page 1</title>
    <desc>Created with Sketch.</desc>
    <defs></defs>
    <g id="USER" stroke="none" stroke-width="1" fill="none" fill-rule="evenodd">
        <g id="1.-Main" transform="translate(-453.000000, -2387.000000)">
            <g id="5.-Servicios" transform="translate(95.000000, 2017.000000)">
                <g id="Terminados" transform="translate(281.000000, 372.000000)">
                    <g id="Page-1" transform="translate(79.000000, 0.000000)">
                        <polygon id="Stroke-1" stroke="#5F5F5F" stroke-width="3" stroke-linejoin="round" points="0 97 17 97 17 66 0 66"></polygon>
                        <path d="M17,93 L89,93 C89,86.5 74.1764706,80 57.2352941,80 L27.5882353,80" id="Stroke-3" stroke="#5F5F5F" stroke-width="3" stroke-linecap="round" stroke-linejoin="round"></path>
                        <path d="M17,70 L31.4666667,70 C41.1924,70 45.9333333,78 48,80" id="Stroke-4" stroke="#5F5F5F" stroke-width="3" stroke-linejoin="round"></path>
                        <path d="M8,87 C6.896,87 6,87.896 6,89 C6,90.104 6.896,91 8,91 C9.104,91 10,90.104 10,89 C10,87.896 9.104,87 8,87" id="Fill-5" fill="#5F5F5F"></path>
                        <path d="M8,44.625 L8,8.5 C8,3.825 11.825,0 16.5,0 L84.5,0 C89.17925,0 93,3.825 93,8.5 L93,59.5 C93,64.175 89.17925,68 84.5,68 L71.75,68" id="Stroke-6" stroke="#5F5F5F" stroke-width="3" stroke-linecap="round" stroke-linejoin="round"></path>
                        <path d="M8,17 L93,17" id="Stroke-7" stroke="#5F5F5F" stroke-width="3" stroke-linecap="round" stroke-linejoin="round"></path>
                        <path d="M21,6 C19.896,6 19,6.896 19,8 C19,9.104 19.896,10 21,10 C22.104,10 23,9.104 23,8 C23,6.896 22.104,6 21,6" id="Fill-8" fill="#5F5F5F"></path>
                        <path d="M29,6 C27.896,6 27,6.896 27,8 C27,9.104 27.896,10 29,10 C30.104,10 31,9.104 31,8 C31,6.896 30.104,6 29,6" id="Fill-9" fill="#5F5F5F"></path>
                        <path d="M38,6 C36.896,6 36,6.896 36,8 C36,9.104 36.896,10 38,10 C39.104,10 40,9.104 40,8 C40,6.896 39.104,6 38,6" id="Fill-10" fill="#5F5F5F"></path>
                    </g>
                </g>
            </g>
        </g>
    </g>
</svg>