<?xml version="1.0" encoding="UTF-8"?>
<svg width="69px" height="62px" viewBox="0 0 69 62" version="1.1" xmlns="http://www.w3.org/2000/svg" xmlns:xlink="http://www.w3.org/1999/xlink">
    <!-- Generator: Sketch 46.2 (44496) - http://www.bohemiancoding.com/sketch -->
    <title>Distancescan</title>
    <desc>Created with Sketch.</desc>
    <defs>
        <path d="M10,20 C15.5225,20 20,15.5225 20,10 C20,4.4775 15.5225,0 10,0 C4.4775,0 0,4.4775 0,10 C0,15.5225 4.4775,20 10,20 Z" id="path-1"></path>
        <path d="M6.36363636,12.7272727 C9.87763636,12.7272727 12.7272727,9.87763636 12.7272727,6.36363636 C12.7272727,2.84963636 9.87763636,0 6.36363636,0 C2.84963636,0 0,2.84963636 0,6.36363636 C0,9.87763636 2.84963636,12.7272727 6.36363636,12.7272727 Z" id="path-3"></path>
        <path d="M6.36363636,12.7272727 C9.87763636,12.7272727 12.7272727,9.87763636 12.7272727,6.36363636 C12.7272727,2.84963636 9.87763636,0 6.36363636,0 C2.84963636,0 0,2.84963636 0,6.36363636 C0,9.87763636 2.84963636,12.7272727 6.36363636,12.7272727 Z" id="path-5"></path>
        <path d="M6.36363636,12.7272727 C9.87763636,12.7272727 12.7272727,9.87763636 12.7272727,6.36363636 C12.7272727,2.84963636 9.87763636,0 6.36363636,0 C2.84963636,0 0,2.84963636 0,6.36363636 C0,9.87763636 2.84963636,12.7272727 6.36363636,12.7272727 Z" id="path-7"></path>
        <path d="M3.63636364,7.27272727 C5.64484848,7.27272727 7.27272727,5.64484848 7.27272727,3.63636364 C7.27272727,1.62787879 5.64484848,0 3.63636364,0 C1.62787879,0 0,1.62787879 0,3.63636364 C0,5.64484848 1.62787879,7.27272727 3.63636364,7.27272727 Z" id="path-9"></path>
        <path d="M3.63636364,7.27272727 C5.64484848,7.27272727 7.27272727,5.64484848 7.27272727,3.63636364 C7.27272727,1.62787879 5.64484848,0 3.63636364,0 C1.62787879,0 0,1.62787879 0,3.63636364 C0,5.64484848 1.62787879,7.27272727 3.63636364,7.27272727 Z" id="path-11"></path>
        <path d="M3.63636364,7.27272727 C5.64484848,7.27272727 7.27272727,5.64484848 7.27272727,3.63636364 C7.27272727,1.62787879 5.64484848,0 3.63636364,0 C1.62787879,0 0,1.62787879 0,3.63636364 C0,5.64484848 1.62787879,7.27272727 3.63636364,7.27272727 Z" id="path-13"></path>
        <path d="M2.27272727,4.54545455 C3.52840909,4.54545455 4.54545455,3.52840909 4.54545455,2.27272727 C4.54545455,1.01704545 3.52840909,0 2.27272727,0 C1.01704545,0 0,1.01704545 0,2.27272727 C0,3.52840909 1.01704545,4.54545455 2.27272727,4.54545455 Z" id="path-15"></path>
        <path d="M2.27272727,4.54545455 C3.52840909,4.54545455 4.54545455,3.52840909 4.54545455,2.27272727 C4.54545455,1.01704545 3.52840909,0 2.27272727,0 C1.01704545,0 0,1.01704545 0,2.27272727 C0,3.52840909 1.01704545,4.54545455 2.27272727,4.54545455 Z" id="path-17"></path>
        <path d="M2.27272727,4.54545455 C3.52840909,4.54545455 4.54545455,3.52840909 4.54545455,2.27272727 C4.54545455,1.01704545 3.52840909,0 2.27272727,0 C1.01704545,0 0,1.01704545 0,2.27272727 C0,3.52840909 1.01704545,4.54545455 2.27272727,4.54545455 Z" id="path-19"></path>
        <path d="M3.63636364,7.27272727 C5.64484848,7.27272727 7.27272727,5.64484848 7.27272727,3.63636364 C7.27272727,1.62787879 5.64484848,0 3.63636364,0 C1.62787879,0 0,1.62787879 0,3.63636364 C0,5.64484848 1.62787879,7.27272727 3.63636364,7.27272727 Z" id="path-21"></path>
        <path d="M3.63636364,7.27272727 C5.64484848,7.27272727 7.27272727,5.64484848 7.27272727,3.63636364 C7.27272727,1.62787879 5.64484848,0 3.63636364,0 C1.62787879,0 0,1.62787879 0,3.63636364 C0,5.64484848 1.62787879,7.27272727 3.63636364,7.27272727 Z" id="path-23"></path>
    </defs>
    <g id="USER" stroke="none" stroke-width="1" fill="none" fill-rule="evenodd">
        <g id="1.-Main" transform="translate(-195.000000, -2161.000000)">
            <g id="4.-Tecnología" transform="translate(0.000000, 1891.000000)">
                <g id="5.-Tecnología" transform="translate(0.000000, 162.000000)">
                    <g id="Rep" transform="translate(195.000000, 87.000000)">
                        <g id="Sub">
                            <g id="Distancescan" transform="translate(0.000000, 22.000000)">
                                <g id="Group-3" transform="translate(23.636364, 40.000000)">
                                    <mask id="mask-2" fill="white">
                                        <use xlink:href="#path-1"></use>
                                    </mask>
                                    <g id="Clip-2"></g>
                                    <polygon id="Fill-1" stroke="#1C3348" fill="#CC1B6E" mask="url(#mask-2)" points="-0.05 20.125 20.05 20.125 20.05 -0.125 -0.05 -0.125"></polygon>
                                </g>
                                <path d="M33.6363636,60 C39.1588636,60 43.6363636,55.5225 43.6363636,50 C43.6363636,44.4775 39.1588636,40 33.6363636,40 C28.1138636,40 23.6363636,44.4775 23.6363636,50 C23.6363636,55.5225 28.1138636,60 33.6363636,60 Z" id="Stroke-4" stroke="#CC1B6E" stroke-width="2" stroke-linecap="round" stroke-linejoin="round"></path>
                                <g id="Group-8" transform="translate(27.272727, 21.818182)">
                                    <mask id="mask-4" fill="white">
                                        <use xlink:href="#path-3"></use>
                                    </mask>
                                    <g id="Clip-7"></g>
                                    <polygon id="Fill-6" fill="#CC1B6E" mask="url(#mask-4)" points="-0.0509090909 12.8036364 12.7781818 12.8036364 12.7781818 -0.0254545455 -0.0509090909 -0.0254545455"></polygon>
                                </g>
                                <path d="M33.6363636,34.5454545 C37.1503636,34.5454545 40,31.6958182 40,28.1818182 C40,24.6678182 37.1503636,21.8181818 33.6363636,21.8181818 C30.1223636,21.8181818 27.2727273,24.6678182 27.2727273,28.1818182 C27.2727273,31.6958182 30.1223636,34.5454545 33.6363636,34.5454545 Z" id="Stroke-9" stroke="#CC1B6E" stroke-width="2" stroke-linecap="round" stroke-linejoin="round"></path>
                                <g id="Group-12" transform="translate(46.363636, 30.000000)">
                                    <mask id="mask-6" fill="white">
                                        <use xlink:href="#path-5"></use>
                                    </mask>
                                    <g id="Clip-11"></g>
                                    <polygon id="Fill-10" fill="#CC1B6E" mask="url(#mask-6)" points="-0.0509090909 12.8036364 12.7781818 12.8036364 12.7781818 -0.0254545455 -0.0509090909 -0.0254545455"></polygon>
                                </g>
                                <path d="M52.7272727,42.7272727 C56.2412727,42.7272727 59.0909091,39.8776364 59.0909091,36.3636364 C59.0909091,32.8496364 56.2412727,30 52.7272727,30 C49.2132727,30 46.3636364,32.8496364 46.3636364,36.3636364 C46.3636364,39.8776364 49.2132727,42.7272727 52.7272727,42.7272727 Z" id="Stroke-13" stroke="#CC1B6E" stroke-width="2" stroke-linecap="round" stroke-linejoin="round"></path>
                                <g id="Group-16" transform="translate(9.090909, 30.000000)">
                                    <mask id="mask-8" fill="white">
                                        <use xlink:href="#path-7"></use>
                                    </mask>
                                    <g id="Clip-15"></g>
                                    <polygon id="Fill-14" fill="#67B373" mask="url(#mask-8)" points="-0.0509090909 12.8036364 12.7781818 12.8036364 12.7781818 -0.0254545455 -0.0509090909 -0.0254545455"></polygon>
                                </g>
                                <path d="M15.4545455,42.7272727 C18.9685455,42.7272727 21.8181818,39.8776364 21.8181818,36.3636364 C21.8181818,32.8496364 18.9685455,30 15.4545455,30 C11.9405455,30 9.09090909,32.8496364 9.09090909,36.3636364 C9.09090909,39.8776364 11.9405455,42.7272727 15.4545455,42.7272727 Z" id="Stroke-17" stroke="#CC1B6E" stroke-width="2" fill="#CC1B6E" stroke-linecap="round" stroke-linejoin="round"></path>
                                <g id="Group-20" transform="translate(30.000000, 10.000000)">
                                    <mask id="mask-10" fill="white">
                                        <use xlink:href="#path-9"></use>
                                    </mask>
                                    <g id="Clip-19"></g>
                                    <polygon id="Fill-18" fill="#CC1B6E" mask="url(#mask-10)" points="-0.145454545 7.2969697 7.27272727 7.2969697 7.27272727 -0.121212121 -0.145454545 -0.121212121"></polygon>
                                </g>
                                <path d="M33.6363636,17.2727273 C35.6448485,17.2727273 37.2727273,15.6448485 37.2727273,13.6363636 C37.2727273,11.6278788 35.6448485,10 33.6363636,10 C31.6278788,10 30,11.6278788 30,13.6363636 C30,15.6448485 31.6278788,17.2727273 33.6363636,17.2727273 Z" id="Stroke-21" stroke="#CC1B6E" stroke-width="2" stroke-linecap="round" stroke-linejoin="round"></path>
                                <g id="Group-24" transform="translate(46.363636, 13.636364)">
                                    <mask id="mask-12" fill="white">
                                        <use xlink:href="#path-11"></use>
                                    </mask>
                                    <g id="Clip-23"></g>
                                    <polygon id="Fill-22" fill="#CC1B6E" mask="url(#mask-12)" points="-0.0484848485 7.2969697 7.36969697 7.2969697 7.36969697 -0.121212121 -0.0484848485 -0.121212121"></polygon>
                                </g>
                                <path d="M50,20.9090909 C52.0084848,20.9090909 53.6363636,19.2812121 53.6363636,17.2727273 C53.6363636,15.2642424 52.0084848,13.6363636 50,13.6363636 C47.9915152,13.6363636 46.3636364,15.2642424 46.3636364,17.2727273 C46.3636364,19.2812121 47.9915152,20.9090909 50,20.9090909 Z" id="Stroke-25" stroke="#CC1B6E" stroke-width="2" stroke-linecap="round" stroke-linejoin="round"></path>
                                <g id="Group-28" transform="translate(13.636364, 13.636364)">
                                    <mask id="mask-14" fill="white">
                                        <use xlink:href="#path-13"></use>
                                    </mask>
                                    <g id="Clip-27"></g>
                                    <polygon id="Fill-26" fill="#CC1B6E" mask="url(#mask-14)" points="-0.096969697 7.2969697 7.32121212 7.2969697 7.32121212 -0.121212121 -0.096969697 -0.121212121"></polygon>
                                </g>
                                <path d="M17.2727273,20.9090909 C19.2812121,20.9090909 20.9090909,19.2812121 20.9090909,17.2727273 C20.9090909,15.2642424 19.2812121,13.6363636 17.2727273,13.6363636 C15.2642424,13.6363636 13.6363636,15.2642424 13.6363636,17.2727273 C13.6363636,19.2812121 15.2642424,20.9090909 17.2727273,20.9090909 Z" id="Stroke-29" stroke="#CC1B6E" stroke-width="2" stroke-linecap="round" stroke-linejoin="round"></path>
                                <g id="Group-32" transform="translate(30.909091, 0.000000)">
                                    <mask id="mask-16" fill="white">
                                        <use xlink:href="#path-15"></use>
                                    </mask>
                                    <g id="Clip-31"></g>
                                    <polygon id="Fill-30" fill="#CC1B6E" mask="url(#mask-16)" points="-0.0454545455 4.61363636 4.59090909 4.61363636 4.59090909 -0.0227272727 -0.0454545455 -0.0227272727"></polygon>
                                </g>
                                <path d="M33.1818182,4.54545455 C34.4375,4.54545455 35.4545455,3.52840909 35.4545455,2.27272727 C35.4545455,1.01704545 34.4375,0 33.1818182,0 C31.9261364,0 30.9090909,1.01704545 30.9090909,2.27272727 C30.9090909,3.52840909 31.9261364,4.54545455 33.1818182,4.54545455 Z" id="Stroke-33" stroke="#CC1B6E" stroke-width="2" stroke-linecap="round" stroke-linejoin="round"></path>
                                <g id="Group-37" transform="translate(7.272727, 4.545455)">
                                    <mask id="mask-18" fill="white">
                                        <use xlink:href="#path-17"></use>
                                    </mask>
                                    <g id="Clip-36"></g>
                                    <polygon id="Fill-35" fill="#CC1B6E" mask="url(#mask-18)" points="0 4.56818182 4.63636364 4.56818182 4.63636364 -0.0681818182 0 -0.0681818182"></polygon>
                                </g>
                                <path d="M9.54545455,9.09090909 C10.8011364,9.09090909 11.8181818,8.07386364 11.8181818,6.81818182 C11.8181818,5.5625 10.8011364,4.54545455 9.54545455,4.54545455 C8.28977273,4.54545455 7.27272727,5.5625 7.27272727,6.81818182 C7.27272727,8.07386364 8.28977273,9.09090909 9.54545455,9.09090909 Z" id="Stroke-38" stroke="#CC1B6E" stroke-width="2" stroke-linecap="round" stroke-linejoin="round"></path>
                                <g id="Group-42" transform="translate(53.636364, 4.545455)">
                                    <mask id="mask-20" fill="white">
                                        <use xlink:href="#path-19"></use>
                                    </mask>
                                    <g id="Clip-41"></g>
                                    <polygon id="Fill-40" fill="#CC1B6E" mask="url(#mask-20)" points="-0.0454545455 4.56818182 4.59090909 4.56818182 4.59090909 -0.0681818182 -0.0454545455 -0.0681818182"></polygon>
                                </g>
                                <path d="M55.9090909,9.09090909 C57.1647727,9.09090909 58.1818182,8.07386364 58.1818182,6.81818182 C58.1818182,5.5625 57.1647727,4.54545455 55.9090909,4.54545455 C54.6534091,4.54545455 53.6363636,5.5625 53.6363636,6.81818182 C53.6363636,8.07386364 54.6534091,9.09090909 55.9090909,9.09090909 Z" id="Stroke-43" stroke="#CC1B6E" stroke-width="2" stroke-linecap="round" stroke-linejoin="round"></path>
                                <g id="Group-46" transform="translate(60.000000, 21.818182)">
                                    <mask id="mask-22" fill="white">
                                        <use xlink:href="#path-21"></use>
                                    </mask>
                                    <g id="Clip-45"></g>
                                    <polygon id="Fill-44" fill="#CC1B6E" mask="url(#mask-22)" points="-0.145454545 7.39393939 7.27272727 7.39393939 7.27272727 -0.0242424242 -0.145454545 -0.0242424242"></polygon>
                                </g>
                                <path d="M63.6363636,29.0909091 C65.6448485,29.0909091 67.2727273,27.4630303 67.2727273,25.4545455 C67.2727273,23.4460606 65.6448485,21.8181818 63.6363636,21.8181818 C61.6278788,21.8181818 60,23.4460606 60,25.4545455 C60,27.4630303 61.6278788,29.0909091 63.6363636,29.0909091 Z" id="Stroke-47" stroke="#CC1B6E" stroke-width="2" stroke-linecap="round" stroke-linejoin="round"></path>
                                <g id="Group-51" transform="translate(0.000000, 21.818182)">
                                    <mask id="mask-24" fill="white">
                                        <use xlink:href="#path-23"></use>
                                    </mask>
                                    <g id="Clip-50"></g>
                                    <polygon id="Fill-49" fill="#CC1B6E" mask="url(#mask-24)" points="0 7.39393939 7.27272727 7.39393939 7.27272727 -0.0242424242 0 -0.0242424242"></polygon>
                                </g>
                                <path d="M3.63636364,29.0909091 C5.64484848,29.0909091 7.27272727,27.4630303 7.27272727,25.4545455 C7.27272727,23.4460606 5.64484848,21.8181818 3.63636364,21.8181818 C1.62787879,21.8181818 0,23.4460606 0,25.4545455 C0,27.4630303 1.62787879,29.0909091 3.63636364,29.0909091 Z" id="Stroke-52" fill="#CC1B6E"></path>
                            </g>
                        </g>
                    </g>
                </g>
            </g>
        </g>
    </g>
</svg>