<?xml version="1.0" encoding="UTF-8"?>
<svg width="49px" height="55px" viewBox="0 0 49 55" version="1.1" xmlns="http://www.w3.org/2000/svg" xmlns:xlink="http://www.w3.org/1999/xlink">
    <!-- Generator: Sketch 46.2 (44496) - http://www.bohemiancoding.com/sketch -->
    <title>Groupofstars</title>
    <desc>Created with Sketch.</desc>
    <defs></defs>
    <g id="USER" stroke="none" stroke-width="1" fill="none" fill-rule="evenodd" stroke-linecap="round" stroke-linejoin="round">
        <g id="1.-Main" transform="translate(-504.000000, -1557.000000)" stroke="#CC1B6E" stroke-width="2">
            <g id="3.-Beneficios" transform="translate(0.000000, 1309.000000)">
                <g id="Subs" transform="translate(0.000000, 122.000000)">
                    <g id="Sub" transform="translate(505.000000, 104.000000)">
                        <path d="M16.244,29.244 L15,33 L13.756,29.244 L10,28 L13.756,26.756 L15,23 L16.244,26.756 L20,28 L16.244,29.244 Z M6.244,38.244 L5,42 L3.756,38.244 L0,37 L3.756,35.756 L5,32 L6.244,35.756 L10,37 L6.244,38.244 Z M21.244,72.244 L20,76 L18.756,72.244 L15,71 L18.756,69.756 L20,66 L21.244,69.756 L25,71 L21.244,72.244 Z M41.741,37.741 L40,43 L38.259,37.741 L33,36 L38.259,34.259 L40,29 L41.741,34.259 L47,36 L41.741,37.741 Z M27.11,53.61 L25,59.985 L22.89,53.61 L16.515,51.5 L22.89,49.39 L25,43.015 L27.11,49.39 L33.485,51.5 L27.11,53.61 Z" id="Groupofstars"></path>
                    </g>
                </g>
            </g>
        </g>
    </g>
</svg>