<?xml version="1.0" encoding="UTF-8"?>
<svg width="20px" height="20px" viewBox="0 0 20 20" version="1.1" xmlns="http://www.w3.org/2000/svg" xmlns:xlink="http://www.w3.org/1999/xlink">
    <!-- Generator: Sketch 46.2 (44496) - http://www.bohemiancoding.com/sketch -->
    <title>instagram</title>
    <desc>Created with Sketch.</desc>
    <defs></defs>
    <g id="Symbols" stroke="none" stroke-width="1" fill="none" fill-rule="evenodd">
        <g id="Header/Not-logged-in" transform="translate(-263.000000, -63.000000)" fill="#CC1B6E">
            <g id="Social-media" transform="translate(199.000000, 63.000000)">
                <g id="instagram" transform="translate(64.000000, 0.000000)">
                    <path d="M14.3384127,9.97257143 C14.3444444,12.4246349 12.3730159,14.3766984 9.8984127,14.3754286 C7.49428571,14.372254 5.53111111,12.4020952 5.52063492,9.98526984 C5.52063492,9.84780952 5.52952381,9.71257143 5.54222222,9.57796825 L0.00825396825,9.57796825 C0.00698412698,11.712254 0.0053968254,13.8465397 0.00825396825,15.9817778 C0.013015873,18.0871746 1.75619048,19.8246349 3.86222222,19.8246349 C7.87333333,19.8262222 11.8850794,19.8262222 15.895873,19.8246349 C17.984127,19.8230476 19.7333333,18.0855873 19.7365079,15.9938413 C19.7393651,13.8554286 19.7365079,11.7166984 19.7365079,9.57796825 L14.3174603,9.57796825 C14.3279365,9.70844444 14.3368254,9.83955556 14.3384127,9.97257143" id="Fill-1"></path>
                    <path d="M17.9479683,4.81815873 C17.9447937,5.31847619 17.6584444,5.6095873 17.1673333,5.6111746 C16.3771746,5.61403175 15.5873333,5.61403175 14.7993968,5.6111746 C14.3308254,5.6095873 14.0368571,5.3248254 14.0324127,4.86450794 C14.026381,4.03784127 14.0279683,3.21149206 14.0324127,2.38577778 C14.0368571,1.95149206 14.3066984,1.6432381 14.7397143,1.63434921 C15.5768571,1.61720635 16.4127302,1.61720635 17.2482857,1.63530159 C17.6752698,1.64450794 17.9419365,1.95625397 17.9479683,2.39593651 C17.954,2.80926984 17.9492381,3.22260317 17.9492381,3.63561905 C17.9492381,4.03053968 17.9508254,4.42450794 17.9479683,4.81815873 L17.9479683,4.81815873 Z M19.7349524,6.34260317 C19.7365397,5.46895238 19.7619365,4.59307937 19.7320952,3.71942857 C19.661619,1.64165079 17.9403492,0.000380952381 15.8555873,0.000380952381 C13.1489206,6.34920635e-05 10.4393968,6.34920635e-05 7.73304762,6.34920635e-05 L7.73304762,4.8511746 L6.70511111,4.8511746 L6.70511111,6.34920635e-05 L5.99368254,6.34920635e-05 L5.99368254,4.8511746 L5.04669841,4.8511746 L5.04669841,0.00228571429 C4.88669841,0.0026031746 4.43177778,0.00323809524 4.22447619,0.00323809524 L4.22447619,4.8511746 L3.18796825,4.8511746 L3.18796825,0.0702222222 C2.34479365,0.251174603 1.58384127,0.759746032 1.57177778,0.771174603 C0.673365079,1.46133333 0.117174603,2.3632381 0.040984127,3.49434921 C-0.0247301587,4.39593651 0.00828571429,7.51911111 0.00828571429,7.51911111 L0.00828571429,7.71974603 L6.15526984,7.71974603 C6.92828571,6.44038095 8.33431746,5.57879365 9.94003175,5.57974603 C11.5435238,5.58006349 12.9406667,6.43847619 13.7076508,7.71974603 L19.7365397,7.71974603 L19.7365397,7.51911111 L19.7349524,6.35942857 L19.7349524,6.34260317 Z" id="Fill-3"></path>
                </g>
            </g>
        </g>
    </g>
</svg>