<?xml version="1.0" encoding="UTF-8"?>
<svg width="21px" height="20px" viewBox="0 0 21 20" version="1.1" xmlns="http://www.w3.org/2000/svg" xmlns:xlink="http://www.w3.org/1999/xlink">
    <!-- Generator: Sketch 46.2 (44496) - http://www.bohemiancoding.com/sketch -->
    <title>Skype</title>
    <desc>Created with Sketch.</desc>
    <defs>
        <linearGradient x1="50%" y1="0%" x2="50%" y2="100%" id="linearGradient-1">
            <stop stop-color="#FFFFFF" offset="0%"></stop>
            <stop stop-color="#000000" offset="100%"></stop>
        </linearGradient>
        <path d="M6.26066993,2.84217094e-14 C3.18682725,2.84217094e-14 0.698005269,2.48972525 0.698005269,5.56146029 L0.698005269,5.56146029 C0.698005269,6.67820851 1.02739932,7.71576967 1.59375235,8.58682725 L1.59375235,8.58682725 C1.51787731,9.06315393 1.47843432,9.55092209 1.47843432,10.047723 L1.47843432,10.047723 C1.47843432,15.1653745 5.65065864,19.3171246 10.8002258,19.3171246 L10.8002258,19.3171246 C11.3813323,19.3171246 11.9476854,19.2608205 12.4974784,19.1611592 L12.4974784,19.1611592 C13.3516748,19.6919834 14.3579225,20 15.4370342,20 L15.4370342,20 C18.5096726,20 21,17.5087693 21,14.4355288 L21,14.4355288 C21,13.2748212 20.644411,12.1966127 20.0340986,11.3047798 L20.0340986,11.3047798 C20.0907038,10.8919834 20.1223184,10.4737674 20.1223184,10.047723 L20.1223184,10.047723 C20.1223184,4.93127588 15.9479865,0.780127964 10.8002258,0.780127964 L10.8002258,0.780127964 C10.2886714,0.780127964 9.78614979,0.821678585 9.29808054,0.902070004 L9.29808054,0.902070004 C8.42340986,0.331802785 7.38193451,2.84217094e-14 6.26066993,2.84217094e-14 Z M13.0195709,13.7987204 C14.3669552,12.2610463 12.1235228,11.4652616 10.4795634,11.2240873 L10.4795634,11.2240873 C8.13195333,10.87723 5.16770794,9.60752729 5.39864509,7.10816711 L5.39864509,7.10816711 C5.62928114,4.60910802 7.5234475,3.32766278 9.51637185,3.14670681 L9.51637185,3.14670681 C12.0566805,2.91576967 13.711178,3.5312006 15.0191193,4.64704554 L15.0191193,4.64704554 C16.5318028,5.93571697 15.7134362,7.37674068 14.7496425,7.4923598 L14.7496425,7.4923598 C13.790064,7.60767783 12.7115544,5.37327813 10.5945804,5.33985698 L10.5945804,5.33985698 C8.41257057,5.30553256 6.93812571,7.60767783 9.63199097,8.26225066 L9.63199097,8.26225066 C12.3267595,8.91652239 15.21242,9.18479488 16.2517877,11.6459164 L16.2517877,11.6459164 C17.2920587,14.1073391 14.6355288,16.724426 11.6712834,16.8779827 L11.6712834,16.8779827 C8.70914565,17.0324426 7.32292059,16.3769665 6.05261573,15.1855476 L6.05261573,15.1855476 C4.63477606,13.8547234 5.2044411,12.3375235 6.36003011,12.2610463 L6.36003011,12.2610463 C7.51471584,12.1836658 8.20812947,13.5680843 8.82416259,13.9540836 L8.82416259,13.9540836 C9.18607452,14.1796011 10.1453519,14.5752352 11.1260068,14.5752352 L11.1260068,14.5752352 C11.8127964,14.5752352 12.5098231,14.3813323 13.0195709,13.7987204 L13.0195709,13.7987204 Z" id="path-2"></path>
    </defs>
    <g id="Symbols" stroke="none" stroke-width="1" fill="none" fill-rule="evenodd">
        <g id="Header/Not-logged-in" transform="translate(-199.000000, -63.000000)">
            <g id="Social-media" transform="translate(199.000000, 63.000000)">
                <g id="Skype">
                    <use fill="url(#linearGradient-1)" xlink:href="#path-2"></use>
                    <use fill="#CC1B6E" xlink:href="#path-2"></use>
                </g>
            </g>
        </g>
    </g>
</svg>