<?xml version="1.0" encoding="UTF-8"?>
<svg width="20px" height="20px" viewBox="0 0 20 20" version="1.1" xmlns="http://www.w3.org/2000/svg" xmlns:xlink="http://www.w3.org/1999/xlink">
    <!-- Generator: Sketch 46.2 (44496) - http://www.bohemiancoding.com/sketch -->
    <title>whatsapp</title>
    <desc>Created with Sketch.</desc>
    <defs></defs>
    <g id="Symbols" stroke="none" stroke-width="1" fill="none" fill-rule="evenodd">
        <g id="Header/Not-logged-in" transform="translate(-298.000000, -63.000000)" fill="#CC1B6E">
            <g id="Social-media" transform="translate(199.000000, 63.000000)">
                <g id="whatsapp" transform="translate(99.000000, 0.000000)">
                    <path d="M10.11134,17.84648 C8.44394,17.86208 6.88654,17.37988 5.58034,16.53908 L2.43174,17.57328 L3.43054,14.53588 C2.43414,13.20128 1.83814,11.55428 1.82154,9.77208 C1.81894,9.50508 1.83054,9.24228 1.85314,8.98168 C2.21574,4.85188 5.69674,1.58268 9.95834,1.54268 C14.27254,1.50228 17.84934,4.78648 18.21654,8.98068 C18.23454,9.19048 18.24834,9.40368 18.25014,9.61688 C18.29234,14.11228 14.64094,17.80408 10.11134,17.84648 M19.79854,9.35808 C19.61614,4.11868 15.25774,-0.04932 9.94374,0.00048 C4.69154,0.04968 0.44834,4.20088 0.27174,9.35908 C0.26614,9.50108 0.26294,9.64348 0.26434,9.78688 C0.28154,11.61928 0.80894,13.32668 1.71274,14.77928 L-6e-05,20.00008 L5.39194,18.22928 C6.80054,18.98408 8.41254,19.40828 10.12574,19.39228 C15.52274,19.34168 19.85574,14.95888 19.80554,9.60328 C19.80474,9.52108 19.80134,9.43948 19.79854,9.35808" id="Fill-1"></path>
                    <path d="M14.24806,11.6122 C14.00626,11.495 12.82186,10.9306 12.60326,10.8546 C12.38206,10.7774 12.22366,10.739 12.06526,10.979 C11.90706,11.2176 11.45326,11.7566 11.31486,11.9162 C11.17666,12.0758 11.03666,12.0976 10.79706,11.9806 C10.55526,11.8658 9.78226,11.6206 8.85926,10.8198 C8.14026,10.1968 7.65366,9.423 7.51146,9.1856 C7.36926,8.9506 7.49426,8.821 7.61246,8.7004 C7.71926,8.5942 7.85086,8.4208 7.96646,8.2822 C8.00286,8.2406 8.02986,8.2038 8.05486,8.1666 C8.11106,8.0788 8.14946,7.996 8.20346,7.8832 C8.28206,7.7242 8.24206,7.5858 8.18146,7.466 C8.12026,7.3494 7.62786,6.183 7.42386,5.7092 C7.21966,5.235 7.02106,5.3172 6.88346,5.3184 C6.74126,5.3198 6.58266,5.3006 6.42426,5.302 C6.26166,5.3036 6.00526,5.3656 5.78746,5.6062 C5.56926,5.8468 4.95566,6.426 4.96666,7.5946 C4.96926,7.871 5.02206,8.1446 5.09806,8.403 C5.34906,9.2414 5.87606,9.9236 5.96886,10.0454 C6.08966,10.2014 7.64966,12.6648 10.09426,13.594 C12.53906,14.5228 12.53586,14.2062 12.97366,14.1612 C13.41126,14.1178 14.38566,13.5746 14.58006,13.0164 C14.77446,12.4592 14.76986,11.9836 14.70946,11.8842 C14.64646,11.7862 14.48766,11.7282 14.24806,11.6122" id="Fill-4"></path>
                </g>
            </g>
        </g>
    </g>
</svg>